<?xml version="1.0" encoding="utf-8"?>
<!-- Generator: Adobe Illustrator 24.1.2, SVG Export Plug-In . SVG Version: 6.00 Build 0)  -->
<svg version="1.1" id="레이어_1" xmlns="http://www.w3.org/2000/svg" xmlns:xlink="http://www.w3.org/1999/xlink" x="0px"
	 y="0px" viewBox="0 0 512 512" style="enable-background:new 0 0 512 512;" xml:space="preserve">
<style type="text/css">
	.st0{fill:#00BFE6;}
	.st1{clip-path:url(#SVGID_2_);}
	.st2{fill:#99E5F5;}
	.st3{opacity:0.6;}
	.st4{fill:#FFFFFF;}
</style>
<circle class="st0" cx="256" cy="256" r="256"/>
<g>
	<defs>
		<circle id="SVGID_1_" cx="256" cy="256" r="256"/>
	</defs>
	<clipPath id="SVGID_2_">
		<use xlink:href="#SVGID_1_"  style="overflow:visible;"/>
	</clipPath>
	<g class="st1">
		<g>
			<g>
				<path class="st2" d="M256,71.2c-65.8,0-119.6,53.8-119.6,119.6S190.2,310.5,256,310.5s119.6-53.8,119.6-119.6
					S321.9,71.2,256,71.2z"/>
			</g>
		</g>
		<g>
			<g>
				<path class="st2" d="M461.4,406.1c-3.1-7.8-7.3-15.2-12-21.9c-24-35.5-61.1-59-102.9-64.8c-5.2-0.5-11,0.5-15.2,3.7
					c-21.9,16.2-48.1,24.6-75.2,24.6s-53.3-8.4-75.2-24.6c-4.2-3.1-9.9-4.7-15.2-3.7c-41.8,5.7-79.4,29.3-102.9,64.8
					c-4.7,6.8-8.9,14.6-12,21.9c-1.6,3.1-1,6.8,0.5,9.9c4.2,7.3,9.4,14.6,14.1,20.9c7.3,9.9,15.2,18.8,24,27.2
					c7.3,7.3,15.7,14.1,24,20.9c41.3,30.8,90.9,47,142.1,47s100.8-16.2,142.1-47c8.4-6.3,16.7-13.6,24-20.9
					c8.4-8.4,16.7-17.2,24-27.2c5.2-6.8,9.9-13.6,14.1-20.9C462.4,412.9,462.9,409.2,461.4,406.1z"/>
			</g>
		</g>
	</g>
</g>
<circle class="st3" cx="256" cy="256" r="256"/>
<g>
	<g>
		<g>
			<path class="st4" d="M328,222H222v-41.1c0-18.1,15.3-32.9,34-32.9s34,14.8,34,32.9V200h20v-19.1c0-29.2-24.2-52.9-54-52.9
				s-54,23.7-54,52.9V222h-18c-16.5,0-30,13.5-30,30v102c0,16.5,13.5,30,30,30h144c16.5,0,30-13.5,30-30V252
				C358,235.5,344.5,222,328,222z M338,354c0,5.5-4.5,10-10,10H184c-5.5,0-10-4.5-10-10V252c0-5.5,4.5-10,10-10h144
				c5.5,0,10,4.5,10,10V354z"/>
		</g>
	</g>
	<g>
		<g>
			<path class="st4" d="M256,271c-10.2,0-18.5,8.3-18.5,18.5c0,6.5,3.4,12.3,8.5,15.5v22c0,5.5,4.5,10,10,10c5.5,0,10-4.5,10-10
				v-21.9c5.1-3.3,8.5-9,8.5-15.6C274.5,279.3,266.2,271,256,271z"/>
		</g>
	</g>
</g>
</svg>
